<?xml version="1.0" encoding="utf-8" ?>
<svg xmlns="http://www.w3.org/2000/svg" xmlns:xlink="http://www.w3.org/1999/xlink" width="1997" height="1997">
	<path fill="#C4BFDA" transform="scale(3.90039 3.90039)" d="M93.4878 16.449C96.5286 19.1867 99.3651 22.1889 102.256 25.0839Q108.842 31.6362 115.355 38.2611C113.93 39.9782 112.124 41.4095 110.517 42.9565C108.073 45.3089 105.718 47.7486 103.334 50.1605L70.0877 83.4228L61.6619 91.7873C60.3728 93.0562 58.6706 94.3897 57.6176 95.842C52.4013 91.134 47.565 85.7358 42.584 80.7529C40.44 78.6081 38.1966 75.9132 35.5822 74.3589C38.8628 71.3923 41.9266 68.1417 45.0518 65.012L60.716 49.3347C71.6383 38.4069 82.8793 27.6755 93.4878 16.449Z"/>
	<path fill="#A399B9" transform="scale(3.90039 3.90039)" d="M115.355 38.2611C118.597 40.9255 121.441 44.1592 124.407 47.1309L140.403 63.1284L193.168 115.891L265.003 187.728L287.871 210.599C291.83 214.541 296.103 218.396 299.824 222.554C301.492 224.418 302.009 225.873 302.243 228.357C302.846 234.761 303.149 241.295 304.182 247.646C306.898 264.328 315.167 273.425 326.567 284.761C328.61 286.792 334.352 291.683 335.327 293.791Q328.896 300.335 322.377 306.79C318.084 302.873 314.083 298.517 309.971 294.399L285.849 270.251C281.564 265.963 276.12 259.734 271.399 256.266C269.965 255.212 268.325 254.644 266.557 254.464C263.776 254.181 260.875 255.027 258.764 256.88C256.509 258.86 255.118 261.572 255.002 264.584C254.924 266.596 255.406 268.428 256.42 270.166C258.809 274.258 267.168 281.463 270.886 285.324C262.102 283.543 252.981 283.04 244.067 282.174C236.501 275.166 229.351 267.563 222.058 260.267L180.472 218.689L167.703 205.944C165.87 204.113 164.125 202.112 162.212 200.378L161.777 200.424C161.761 200.395 161.739 200.369 161.731 200.338C161.441 199.213 161.233 198.087 160.546 197.111C158.583 194.322 155.428 191.741 152.999 189.316L137.196 173.545L111.083 147.414C106.686 143.014 102.368 138.167 97.6672 134.113C96.4168 133.034 95.3805 132.74 93.8152 132.41C93.4393 131.215 83.1721 121.227 81.6864 120.049C81.5176 120.442 81.4119 120.76 81.3575 121.185C81.4377 119.303 81.0224 117.934 79.9376 116.368C78.4191 114.177 76.3515 112.865 73.7578 112.396C73.5524 111.114 59.3906 97.7504 57.6176 95.842C58.6706 94.3897 60.3728 93.0562 61.6619 91.7873L70.0877 83.4228L103.334 50.1605C105.718 47.7486 108.073 45.3089 110.517 42.9565C112.124 41.4095 113.93 39.9782 115.355 38.2611Z"/>
	<path fill="#A399B9" transform="scale(3.90039 3.90039)" d="M15.7109 94.3307C21.9286 87.4285 28.8353 80.7511 35.5822 74.3589C38.1966 75.9132 40.44 78.6081 42.584 80.7529C47.565 85.7358 52.4013 91.134 57.6176 95.842C53.8485 100.51 47.0668 106.514 42.5734 110.966C41.0057 112.519 38.8491 114.305 37.6705 116.168C34.8473 113.635 32.2171 110.809 29.5298 108.13L15.7109 94.3307Z"/>
	<defs>
		<linearGradient id="gradient_0" gradientUnits="userSpaceOnUse" x1="201.09491" y1="189.10033" x2="155.80351" y2="236.3531">
			<stop offset="0" stop-color="#6E7486"/>
			<stop offset="1" stop-color="#7B708E"/>
		</linearGradient>
	</defs>
	<path fill="url(#gradient_0)" transform="scale(3.90039 3.90039)" d="M57.6176 95.842C59.3906 97.7504 73.5524 111.114 73.7578 112.396C71.9293 112.556 69.8536 113.303 68.6807 114.799C67.7335 116.007 67.4629 117.644 67.7066 119.135C68.0927 121.498 69.9183 123.68 71.8454 125C73.2585 125.968 75.0454 126.556 76.7614 126.192C78.4806 125.827 79.7502 124.538 80.5993 123.054C80.9422 122.454 81.1667 121.846 81.3575 121.185C81.4119 120.76 81.5176 120.442 81.6864 120.049C83.1721 121.227 93.4393 131.215 93.8152 132.41C91.8059 132.611 90.179 133.262 88.8788 134.875Q88.6985 135.097 88.5418 135.336Q88.3851 135.575 88.2535 135.829Q88.122 136.083 88.017 136.349Q87.9121 136.615 87.8347 136.89Q87.7574 137.165 87.7086 137.447Q87.6598 137.729 87.6399 138.014Q87.62 138.299 87.6293 138.585Q87.6386 138.871 87.677 139.154C87.884 140.8 88.6663 141.775 89.7366 142.977C93.8949 147.649 98.6395 151.978 103.068 156.403L128.988 182.298L144.179 197.534C146.824 200.187 149.558 203.467 152.62 205.616C153.843 206.474 155.494 206.706 156.941 206.404C158.622 206.053 160.041 204.879 160.886 203.407C161.415 202.486 161.67 201.474 161.777 200.424L162.212 200.378C164.125 202.112 165.87 204.113 167.703 205.944L180.472 218.689L222.058 260.267C229.351 267.563 236.501 275.166 244.067 282.174C252.981 283.04 262.102 283.543 270.886 285.324C267.168 281.463 258.809 274.258 256.42 270.166C255.406 268.428 254.924 266.596 255.002 264.584C255.118 261.572 256.509 258.86 258.764 256.88C260.875 255.027 263.776 254.181 266.557 254.464C268.325 254.644 269.965 255.212 271.399 256.266C276.12 259.734 281.564 265.963 285.849 270.251L309.971 294.399C314.083 298.517 318.084 302.873 322.377 306.79L310.006 319.194C305.811 322.661 302.015 326.871 298.147 330.712C296.523 332.325 294.335 334.052 292.99 335.855C290.582 334.193 287.216 330.201 285.047 328.019C274.012 316.919 265.136 308.219 248.935 305.1C244.513 304.249 225.214 302.956 223.357 301.645C220.843 299.871 218.657 297.262 216.484 295.085L204.818 283.408L161.872 240.452L78.8633 157.45L51.8284 130.397C47.1156 125.686 42.1408 121.104 37.6705 116.168C38.8491 114.305 41.0057 112.519 42.5734 110.966C47.0668 106.514 53.8485 100.51 57.6176 95.842Z"/>
	<path fill="#F7F9FA" transform="scale(3.90039 3.90039)" d="M81.3575 121.185C81.1667 121.846 80.9422 122.454 80.5993 123.054C79.7502 124.538 78.4806 125.827 76.7614 126.192C75.0454 126.556 73.2585 125.968 71.8454 125C69.9183 123.68 68.0927 121.498 67.7066 119.135C67.4629 117.644 67.7335 116.007 68.6807 114.799C69.8536 113.303 71.9293 112.556 73.7578 112.396C76.3515 112.865 78.4191 114.177 79.9376 116.368C81.0224 117.934 81.4377 119.303 81.3575 121.185Z"/>
	<path fill="#F7F9FA" transform="scale(3.90039 3.90039)" d="M161.777 200.424C161.67 201.474 161.415 202.486 160.886 203.407C160.041 204.879 158.622 206.053 156.941 206.404C155.494 206.706 153.843 206.474 152.62 205.616C149.558 203.467 146.824 200.187 144.179 197.534L128.988 182.298L103.068 156.403C98.6395 151.978 93.8949 147.649 89.7366 142.977C88.6663 141.775 87.884 140.8 87.677 139.154Q87.6386 138.871 87.6293 138.585Q87.62 138.299 87.6399 138.014Q87.6598 137.729 87.7086 137.447Q87.7575 137.165 87.8348 136.89Q87.9121 136.615 88.017 136.349Q88.122 136.083 88.2535 135.829Q88.3851 135.575 88.5418 135.336Q88.6985 135.097 88.8788 134.875C90.179 133.262 91.8059 132.611 93.8152 132.41C95.3805 132.74 96.4168 133.034 97.6672 134.113C102.368 138.167 106.686 143.014 111.083 147.414L137.196 173.545L152.999 189.316C155.428 191.741 158.583 194.322 160.546 197.111C161.233 198.087 161.441 199.213 161.731 200.338C161.739 200.369 161.761 200.395 161.777 200.424Z"/>
	<path fill="#E5A568" transform="scale(3.90039 3.90039)" d="M335.327 293.791C336.715 292.474 337.937 291.032 339.284 289.687C344.046 292.114 349.191 296.849 353.457 300.248L371.016 314.061L379.439 320.709C380.361 321.43 381.435 321.982 382.248 322.825C379.612 326.428 373.544 331.814 370.213 335.149C363.225 342.147 356.382 349.429 349.163 356.177L348.96 356.006C347.064 357.125 344.947 359.792 343.482 361.459C338.361 354.168 332.383 347.24 326.858 340.237C321.329 333.229 315.995 325.8 310.006 319.194L322.377 306.79Q328.896 300.335 335.327 293.791Z"/>
	<path fill="#BF8859" transform="scale(3.90039 3.90039)" d="M292.99 335.855C294.335 334.052 296.523 332.325 298.147 330.712C302.015 326.871 305.811 322.661 310.006 319.194C315.995 325.8 321.329 333.229 326.858 340.237C332.383 347.24 338.361 354.168 343.482 361.459C344.947 359.792 347.064 357.125 348.96 356.006L349.163 356.177L343.751 361.579C341.507 363.339 339.516 365.586 337.502 367.608C332.829 372.298 328.256 377.197 323.354 381.64C317.608 373.911 311.449 366.423 305.47 358.87C300.314 352.356 295.312 345.664 289.882 339.377C290.769 338.09 291.917 336.988 292.99 335.855Z"/>
	<path fill="#F3CE7E" transform="scale(3.90039 3.90039)" d="M349.163 356.177C356.382 349.429 363.225 342.147 370.213 335.149C373.544 331.814 379.612 326.428 382.248 322.825C384.565 325.383 391.314 329.973 394.411 332.42L410.475 345.127C413.369 347.433 416.164 350.092 419.315 352.02C416.505 354.929 413.312 357.544 410.423 360.406C398.354 372.366 386.075 384.298 374.359 396.597C373.668 396.958 373.082 397.741 372.548 398.314C363.461 385.726 353.057 374.019 343.751 361.579L349.163 356.177Z"/>
	<path fill="#E5A568" transform="scale(3.90039 3.90039)" d="M419.315 352.02L419.561 352.246C423.596 355.903 428.189 359.118 432.461 362.509L458.809 383.277C468.811 391.03 479.8 398.584 487.016 409.151C488.142 410.799 489.017 412.671 489.918 414.45C493.454 421.44 495.578 428.335 495.973 436.215C496.549 447.722 494.087 459.542 487.793 469.336C487.306 469.166 487.023 469.085 486.502 469.183C484.009 469.651 479.581 472.003 476.989 472.908C464.21 477.375 448.482 475.78 436.413 469.963C431.549 467.619 426.366 464.346 422.508 460.512Q419.656 457.693 417.081 454.619C406.193 441.451 395.844 427.738 385.26 414.318C383.374 411.927 373.376 399.882 372.846 398.384C373.456 397.954 373.944 397.489 374.462 396.953L374.359 396.597C386.075 384.298 398.354 372.366 410.423 360.406C413.312 357.544 416.505 354.929 419.315 352.02Z"/>
	<path fill="#E5A568" transform="scale(3.90039 3.90039)" d="M323.354 381.64C328.256 377.197 332.829 372.298 337.502 367.608C339.516 365.586 341.507 363.339 343.751 361.579C353.057 374.019 363.461 385.726 372.548 398.314C373.082 397.741 373.668 396.958 374.359 396.597L374.462 396.953C373.944 397.489 373.456 397.954 372.846 398.384C372.103 399.017 371.5 399.854 370.808 400.553L365.003 406.383C361.256 410.141 355.985 414.805 352.764 418.758C342.82 406.498 333.289 393.906 323.354 381.64Z"/>
	<path fill="#BF8859" transform="scale(3.90039 3.90039)" d="M352.764 418.758C355.985 414.805 361.256 410.141 365.003 406.383L370.808 400.553C371.5 399.854 372.103 399.017 372.846 398.384C373.376 399.882 383.374 411.927 385.26 414.318C395.844 427.738 406.193 441.451 417.081 454.619Q419.656 457.693 422.508 460.512C426.366 464.346 431.549 467.619 436.413 469.963C448.482 475.78 464.21 477.375 476.989 472.908C479.581 472.003 484.009 469.651 486.502 469.183C487.023 469.085 487.306 469.166 487.793 469.336C482.98 476.355 478.452 481.614 471.258 486.367Q470.104 487.132 468.914 487.838Q467.724 488.544 466.501 489.19Q465.277 489.836 464.022 490.42Q462.768 491.005 461.486 491.526Q460.204 492.047 458.898 492.504Q457.591 492.961 456.264 493.352Q454.937 493.743 453.591 494.068Q452.246 494.393 450.887 494.65Q449.527 494.908 448.156 495.097Q446.785 495.287 445.407 495.408Q444.028 495.529 442.645 495.581Q441.262 495.633 439.879 495.616Q438.495 495.6 437.114 495.514Q435.732 495.429 434.357 495.275Q432.982 495.121 431.616 494.898Q430.25 494.676 428.897 494.386C419.521 492.443 411.145 488.129 403.858 481.974C397.084 476.253 390.836 467.266 385.343 460.185L369.434 440.021L358.874 426.656C356.813 424.066 354.58 421.521 352.764 418.758Z"/>
</svg>
